<svg xmlns="http://www.w3.org/2000/svg" xmlns:xlink="http://www.w3.org/1999/xlink" xmlns:fi="http://pattern.flaticon.com/" x="0" y="0" width="1024" height="512" viewBox="0 0 1024 512"><rect x="0px" y="0px" width="100%" height="100%" opacity="0" fill="#008cff"/><defs><g transform="matrix(0.1376146823167801 0 0 0.1376146823167801 103 269)" id="L1_0"><path d="M428.003,218l-44.23-37.856l23.464-53.292l-56.312-14.833l-1.978-58.198l-57.183,10.964   l-27.038-51.563l-46.729,34.781L171.274,13.22l-27.037,51.573L87.052,53.82l-1.981,58.193L28.763,126.85l23.464,53.292L7.997,218   l44.231,37.857l-23.464,53.292l56.311,14.833l1.978,58.198l57.093-10.956c0.065-0.012,0.104-0.016,0.09-0.009l27.039,51.564   l46.719-34.782l46.733,34.781l27.035-51.572l57.186,10.973l1.98-58.194l56.309-14.836l-23.464-53.292L428.003,218z M358,218   c0,77.196-62.804,140-140,140S78,295.196,78,218S140.804,78,218,78S358,140.803,358,218z" fill="#f5c525"/><path d="M218,78c-77.196,0-140,62.804-140,140s62.804,140,140,140s140-62.804,140-140S295.196,78,218,78z" fill="#f8a805"/><g><path d="M218,70c-81.61,0-148,66.39-148,148s66.39,148,148,148s148-66.39,148-148S299.61,70,218,70z M218,350    c-72.79,0-132-59.21-132-132S145.21,86,218,86c72.78,0,132,59.21,132,132S290.78,350,218,350z"/><path d="M433.2,211.92l-39.71-33.99l21.07-47.85c0.94-2.14,0.9-4.59-0.12-6.7c-1.01-2.11-2.9-3.66-5.16-4.26l-50.56-13.33    l-1.78-52.25c-0.08-2.33-1.18-4.52-3.01-5.98c-1.82-1.46-4.2-2.04-6.49-1.6l-51.35,9.85l-24.28-46.3    c-1.09-2.08-3.03-3.57-5.31-4.09s-4.68-0.01-6.56,1.38L218,38.03L176.05,6.8c-1.88-1.39-4.27-1.9-6.55-1.38s-4.22,2.01-5.31,4.09    l-24.28,46.3l-51.35-9.85c-2.3-0.44-4.67,0.14-6.5,1.6c-1.82,1.46-2.92,3.65-3,5.98l-1.78,52.25l-50.56,13.33    c-2.26,0.6-4.15,2.15-5.17,4.26c-1.01,2.11-1.05,4.56-0.11,6.7l21.07,47.85L2.8,211.92C1.02,213.44,0,215.66,0,218    s1.02,4.56,2.8,6.08l39.71,33.99l-21.07,47.85c-0.95,2.14-0.9,4.59,0.11,6.7c1.02,2.11,2.91,3.66,5.17,4.26l50.56,13.33    l1.78,52.25c0.08,2.33,1.17,4.52,3,5.98c1.83,1.46,4.21,2.04,6.5,1.6l51.35-9.85l24.28,46.3c1.09,2.08,3.03,3.57,5.31,4.09    s4.67,0.01,6.55-1.38L218,397.97l41.94,31.23c1.4,1.03,3.08,1.58,4.78,1.58c0.59,0,1.19-0.07,1.78-0.2    c2.28-0.52,4.22-2.01,5.31-4.09l24.28-46.3l51.34,9.85c2.3,0.44,4.68-0.14,6.5-1.6c1.83-1.46,2.93-3.65,3.01-5.98l1.78-52.25    l50.55-13.33c2.27-0.6,4.16-2.15,5.17-4.26c1.02-2.11,1.06-4.56,0.12-6.7l-21.07-47.85l39.71-33.99c1.78-1.52,2.8-3.74,2.8-6.08    S434.98,213.44,433.2,211.92z M378.57,249.78c-2.68,2.29-3.54,6.07-2.12,9.3l19.69,44.72l-47.25,12.45    c-3.42,0.9-5.84,3.93-5.96,7.46l-1.66,48.85l-48-9.21c-3.46-0.66-6.95,1.02-8.59,4.15l-22.69,43.27l-39.22-29.19    c-2.83-2.11-6.71-2.11-9.55,0l-39.21,29.19l-22.69-43.27c-1.4-2.67-4.15-4.29-7.08-4.29c-0.5,0-1.01,0.05-1.51,0.14l-48,9.21    l-1.66-48.85c-0.12-3.53-2.54-6.56-5.96-7.46L39.86,303.8l19.69-44.72c1.42-3.23,0.56-7.01-2.12-9.3L20.3,218l37.13-31.78    c2.68-2.29,3.54-6.07,2.12-9.3L39.86,132.2l47.25-12.45c3.42-0.9,5.84-3.93,5.96-7.46l1.66-48.85l48,9.21    c3.46,0.66,6.95-1.02,8.59-4.15l22.69-43.27l39.21,29.19c2.84,2.11,6.72,2.11,9.55,0l39.22-29.19l22.69,43.27    c1.64,3.13,5.13,4.81,8.59,4.15l48-9.21l1.66,48.85c0.12,3.53,2.54,6.56,5.96,7.46l47.25,12.45l-19.69,44.72    c-1.42,3.23-0.56,7.01,2.12,9.3L415.7,218L378.57,249.78z"/></g></g><g transform="matrix(0.13719302415847778 0 0 0.13719302415847778 204 16.999997722381522)" id="L1_1"><path d="M0,353.436v59c0,1.36,0.34,2.73,1.07,3.99c1.48,2.57,4.17,4.01,6.93,4.01v-8   c0.41-0.25,46.64-26.95,128.51-37.53c1.05-0.14,2.13-0.28,3.21-0.41l6.111-0.832l2.36,4.934c1.043,2.225,2.02,4.311,3.069,6.499   h81.23c1.75,0,3.17-1.42,3.17-3.17v-10.26l8.61,0.65c58.24,4.42,118.03,18.09,177.71,40.64l14.012,5.292   c0.875-1.1,1.348-2.49,1.348-3.892v-60.92L0,353.436L0,353.436z" fill="#3e81c8"/><path d="M435.99,418.246c-1.01,1.3-2.6,2.19-4.67,2.19H8v-8c0.41-0.25,46.64-26.95,128.51-37.53   c1.05-0.14,2.13-0.28,3.21-0.41l6.111-0.832l2.36,4.934c1.13,2.14,1.879,4.389,3.069,6.499h81.23c1.75,0,3.17-1.42,3.17-3.17   v-10.26l8.61,0.65c58.24,4.42,118.03,18.09,177.71,40.64L435.99,418.246z" fill="#f5c525"/><path d="M335.828,184.247c-16.113-28.393-44.872-49.387-85.472-62.393   c13.154-23.026,35.356-36.056,65.989-38.729l37.395-0.575l-35.881-15.084c-10.394-2.987-21.526-4.501-33.089-4.501   c-35.524,0-64.146,14.077-67.259,15.665l-0.147,0.083C195.02,66.22,173.13,59.886,152.301,59.886   c-16.594,0-32.319,3.958-46.739,11.765L81.92,84.449l26.793,2.21c17.078,1.408,42.747,9.978,68.065,42.803   c0,0-0.708-0.016-1.208-0.016c-7.397,0-45.45,1.374-68.137,28.498c-11.866,14.19-17.59,33.186-17.012,56.461l0.574,23.093   c0,0,20.527-26.866,24.217-30.632c20.343-20.751,46.453-31.72,75.506-31.719c0.287,0.208,28.733,21.433,34.521,79.68l2.645,26.614   l12.404-23.695c13.775-26.314,25.384-63.326,2.441-90.22c2.096,0.299,51.676,7.582,82.984,29.922l25.276,21.603   C350.99,219.051,336.404,185.266,335.828,184.247z" fill="#3e81c8"/><path d="M223.509,371.46c-6.2-6.248-11.74-13.021-16.466-20.132c-4.883-7.348-13.904-28.42-17.172-38.421   c-5.065-15.499-3.561-50.787-1.684-67.583c3.051-27.296,16.985-53.647,16.985-53.647l-2.348-3.294   c-3.882-5.447-7.332-9.027-9.544-11.071l-2.384-2.204l-13.638,0.813c0,0-12.984,11.415-20.81,23.272   c-5.933,8.99-18.107,30.645-20.874,37.693c-5.138,13.055-8.482,26.576-9.94,40.188l-0.855,16.896   c0.104,19.212,3.901,38.98,11.286,58.755l15.17,32.371h85.804L223.509,371.46z" fill="#f8a805"/><g><path d="M418.989,302.928c-1.178,0-2.374-0.261-3.504-0.813c-11.39-5.561-23.857-5.935-35.39-1.121    c-1.413,1.214-3.245,1.932-5.214,1.932h-0.773c-1.969,0-3.801-0.718-5.214-1.932c-11.533-4.814-24.001-4.44-35.39,1.121    c-3.969,1.938-8.761,0.291-10.698-3.679c-1.938-3.97-0.292-8.76,3.679-10.699c15.448-7.542,32.339-8.124,48.01-1.743    c15.671-6.38,32.563-5.799,48.01,1.743c3.971,1.939,5.617,6.729,3.679,10.699C424.797,301.276,421.95,302.928,418.989,302.928z"/><path d="M109.989,38.224c-1.178,0-2.374-0.261-3.504-0.813c-11.39-5.561-23.856-5.935-35.391-1.121    c-1.412,1.214-3.244,1.932-5.213,1.932h-0.773c-1.969,0-3.801-0.718-5.213-1.932c-11.534-4.814-24.001-4.44-35.391,1.121    c-3.968,1.937-8.76,0.291-10.698-3.679s-0.292-8.76,3.679-10.699c15.447-7.542,32.339-8.123,48.01-1.743    c15.672-6.38,32.563-5.799,48.01,1.743c3.971,1.939,5.617,6.729,3.679,10.699C115.797,36.573,112.95,38.224,109.989,38.224z"/><path d="M109.5,201.266c-4.32,4.41-8,8.82-11.08,12.94c-0.53-21.3,4.53-38.43,15.15-51.13c20.4-24.39,55.23-25.63,62-25.63    c0.54,0,0.85,0.01,0.9,0.01c3.11,0.12,5.98-1.57,7.4-4.33s1.12-6.09-0.77-8.55c-26.45-34.31-53.72-44.24-73.73-45.89    c10.64-5.76,25.07-10.8,42.93-10.8c19.44,0,40.02,5.99,61.16,17.81c2.36,1.32,5.23,1.35,7.63,0.09    c0.28-0.14,28.62-14.82,63.68-14.82c10.85,0,21.17,1.4,30.88,4.19c-25.22,2.2-54.73,12.08-72.24,42.73    c-1.2,2.09-1.38,4.61-0.51,6.86c0.87,2.25,2.72,3.99,5.01,4.72c38.63,12.38,65.87,32.14,80.96,58.73    c0.52,0.92,1.02,1.83,1.49,2.74c-32.92-23.49-83.63-30.92-86.5-31.33c-3.29-0.46-6.53,1.16-8.13,4.07    c-1.6,2.92-1.23,6.52,0.93,9.05c20.49,24.03,8.24,58.96-3.46,81.31c-6.13-61.7-36.34-84.32-37.79-85.37    c-1.37-0.99-3.01-1.52-4.69-1.52C159.46,167.146,131.38,178.946,109.5,201.266z M155.99,377.096c-2.03-3.73-3.91-7.45-5.67-11.17    h21.67c4.42,0,8-3.58,8-8c0-0.75-0.1-1.48-0.3-2.17c-0.23-0.84-0.6-1.62-1.07-2.32c-1.44-2.12-3.87-3.51-6.63-3.51h-28.43    c-7.08-18.96-10.68-37.65-10.78-56h21.21c4.42,0,8-3.58,8-8s-3.58-8-8-8h-20.4c1.38-12.89,4.51-25.61,9.43-38.11    c2.85-7.26,6.12-13.9,9.52-19.89h13.45c4.42,0,8-3.58,8-8s-3.58-8-8-8h-3.09c7.91-10.78,15.02-17.74,17.79-20.29    c2.36-0.22,4.74-0.39,7.16-0.45c1.85,1.71,4.94,4.9,8.46,9.84c-0.01,0.03-0.03,0.05-0.04,0.08c-0.52,1.02-10.76,21.54-15.96,50.82    h-18.32c-4.41,0-8,3.58-8,8c0,4.42,3.59,8,8,8h16.15c-0.05,0.54-0.11,1.07-0.15,1.62c-1.61,18.91-0.19,36.78,4.14,53.38h-21.14    c-4.41,0-8,3.58-8,8s3.59,8,8,8h26.38c3.12,7.86,6.96,15.36,11.51,22.51c0.49,0.78,0.99,1.55,1.5,2.32    c5.01,7.54,10.84,14.68,17.45,21.34L155.99,377.096L155.99,377.096z M437.03,412.436c-0.5-1.54-1.65-2.91-3.53-3.64    c-69.26-27.12-138.28-42.41-205.62-45.5c-0.38-0.02-0.76,0-1.13,0.04c-2.33-2.47-4.55-4.99-6.63-7.58    c-0.62-0.77-1.23-1.54-1.82-2.32c-19.09-24.78-27.29-54.93-24.41-90.03c1.84-22.43,7.98-41.64,12.27-52.79    c6.81,15.54,12.6,38.13,12.09,69.72c-0.06,3.45,2.11,6.55,5.37,7.69c0.86,0.29,1.75,0.44,2.62,0.44c2.45,0,4.82-1.13,6.37-3.15    c2.07-2.72,45.42-60.4,26.33-106.55c28.88,6.7,72.52,22.1,81.55,48.46c1.26,3.67,4.98,5.92,8.82,5.31    c3.83-0.61,6.68-3.88,6.75-7.76c0.02-0.81,0.21-20.18-12.74-43.52c-10.95-19.74-33.73-46.18-80.55-63.58    c17.32-22.11,44.37-27.04,65.03-27.04c13.58,0,23.47,2.2,23.56,2.22c0.7,0.16,1.41,0.22,2.11,0.19c4.27-0.16,7.69-3.68,7.69-7.99    c0-2.79-1.43-5.24-3.59-6.67c-20.87-15.54-45.37-23.42-72.8-23.42c-31.39,0-57.52,10.37-67.18,14.76    c-22.29-11.84-44.24-17.84-65.29-17.84c-48.81,0-75.74,31.78-76.87,33.13c-2.37,2.87-2.48,7-0.23,9.96s6.21,3.99,9.61,2.48    c0.07-0.03,7.16-3.04,18.12-3.04c14.55,0,35.54,5.23,57.47,28.21c-16.47,2.37-41.74,9.42-59.11,30.19    c-17.38,20.79-22.82,50.12-16.15,87.19c0.62,3.48,3.47,6.13,6.98,6.53c3.51,0.39,6.88-1.58,8.26-4.83    c0.06-0.15,6.5-15.06,20.96-29.66c9.49-9.57,20.07-16.77,31.64-21.6c-8.14,10.48-17.43,24.87-24.57,42.8    c-9.3,23.35-13.01,47.85-11.02,72.82c1.25,15.65,4.76,31.47,10.5,47.37c0.27,0.77,0.55,1.55,0.84,2.32    c1.43,3.82,2.98,7.65,4.66,11.48c-81.1,10.81-127.38,37.11-129.4,38.27c-2.56,1.48-3.99,4.17-3.99,6.93    c0,1.36,0.34,2.73,1.07,3.99c1.48,2.57,4.17,4.01,6.93,4.01c1.36,0,2.74-0.35,4-1.08c0.15-0.08,5.03-2.86,14.24-6.92    c19.3-8.51,57.62-22.66,111.3-29.6c1.05-0.14,2.1-0.27,3.16-0.4c1.87,3.55,3.85,7.11,5.94,10.66h85.85c6.17,0,11.17-5,11.17-11.17    v-1.63c50.33,3.82,101.61,14.58,153.2,32.14c7.42,2.52,14.85,5.19,22.29,8h12.17c3.82,0,6.02-3.03,6.02-6.08    C437.34,413.706,437.24,413.056,437.03,412.436z"/></g></g><g transform="matrix(0.12652942538261414 0 0 0.12652942538261414 6 8.00000037069168)" id="L1_2"><path d="M392.914,243.615 363.007,272.492 326.622,236.108 309.628,257.314 355.341,336.489    466.448,336.489z" fill="#f8a805"/><path d="M286.184,216.71 233.699,193.488 211.694,229.487 211.799,229.472 211.694,229.491    181.279,191.975 51.534,416.709 401.657,416.709z" fill="#a18671"/><path d="M129.619,232.694 86.966,277.44 59.158,241.082 4.084,336.489 97.839,336.489    143.734,256.998z" fill="#f8a805"/><path d="M96.697,176.069 59.165,241.081 87.008,277.494 129.611,232.695z" fill="#efefef"/><path d="M226.589,113.489 181.281,191.975 211.701,229.485 233.694,193.486 286.191,216.705z" fill="#efefef"/><path d="M356.695,198.581 326.626,236.109 363,272.484 392.869,243.656z" fill="#efefef"/><path d="M433.304,114.822c-3.127-14.679-16.293-25.333-31.304-25.333c-6.001,0-11.844,1.669-16.898,4.824   C379.41,81.055,366.416,72.489,352,72.489c-19.851,0-36,16.149-36,36c0,8.777,3.204,16,3.204,16h116.159L433.304,114.822z" fill="#3e81c8"/><path d="M166.304,99.822C163.177,85.143,150.011,74.489,135,74.489c-6.001,0-11.844,1.669-16.898,4.824   C112.41,66.055,99.416,57.489,85,57.489c-19.851,0-36,16.149-36,36c0,8.444,3.204,16,3.204,16h116.159L166.304,99.822z" fill="#3e81c8"/><g><path d="M472.69,331.479l-2.38-2.99l-107.37-134.92c-1.52-1.89-3.82-2.99-6.24-2.99c0,0,0,0-0.01,0c-2.42,0-4.72,1.11-6.24,3    l-39.74,49.6l-77.19-133.69c-1.43-2.48-4.07-4-6.93-4c-2.85,0-5.5,1.52-6.92,4l-75.96,131.55l-40.1-68.99    c-1.43-2.46-4.06-3.98-6.91-3.98c-0.01,0-0.01,0-0.01,0c-2.86,0.01-5.49,1.53-6.92,4l-88.7,153.63c-0.51,0.89-0.83,1.83-0.97,2.79    H0v16h83.99l-35.22,61c-0.59,1.02-0.91,2.12-1.01,3.22h-0.01v0.06c-0.04,0.52-0.06,1.04,0,1.55v14.39h357.68v-14.29    c0.07-0.56,0.05-1.12,0-1.69v-0.02c-0.11-1.1-0.42-2.2-1.01-3.22l-35.22-61H474C474,344.489,474.95,333.749,472.69,331.479z     M356.7,211.369l25.36,31.6l-18.96,18.3l-25.75-25.75L356.7,211.369z M226.59,129.489l40.41,69.98l-30.07-13.3    c-3.66-1.62-7.97-0.27-10.06,3.15l-16.09,26.33l-19.82-24.44L226.59,129.489z M96.72,192.029l22.96,39.5l-32.01,33.66    l-18.91-24.73L96.72,192.029z M17.94,328.489l42.15-73.02l20.56,26.88c1.42,1.86,3.59,3,5.92,3.13c0.15,0.01,0.29,0.01,0.43,0.01    c2.19,0,4.29-0.89,5.8-2.49l35.26-37.06l6.43,11.07l-41.27,71.48L17.94,328.489L17.94,328.489z M127.12,408.709H65.39l37.08-64.22    l9.23-16l70.69-122.44l23.09,28.48c1.53,1.88,3.82,2.96,6.22,2.96c0.17,0,0.35-0.01,0.53-0.02c2.59-0.17,4.94-1.59,6.29-3.81    l18.35-30.02l9.83,4.35v26.25c0,8.96-7.29,16.25-16.26,16.25h-24.49c-17.78,0-32.25,14.47-32.25,32.25v0.5    c0,17.78,14.47,32.25,32.25,32.25h66.49c7.86,0,14.42,5.59,15.93,13c0.22,1.05,0.33,2.14,0.33,3.25v14.5    c0,8.96-7.29,16.25-16.26,16.25H157.95c-17.78,0-32.25,14.47-32.25,32.25v4.5C125.7,402.529,126.2,405.709,127.12,408.709z     M387.8,408.709H144.75c-1.92-2.67-3.05-5.94-3.05-9.47v-4.5c0-8.96,7.29-16.25,16.25-16.25h114.49    c17.79,0,32.26-14.47,32.26-32.25v-14.5c0-1.1-0.06-2.18-0.17-3.25c-1.63-16.26-15.4-29-32.09-29h-66.49    c-8.96,0-16.25-7.29-16.25-16.25v-0.5c0-8.96,7.29-16.25,16.25-16.25h24.49c17.79,0,32.26-14.47,32.26-32.25v-19.18l17.86,7.91    l60.92,105.52l9.24,16L387.8,408.709z M359.96,328.489l-40.67-70.44l7.99-9.97l30.07,30.07c1.56,1.56,3.6,2.34,5.65,2.34    c2.01,0,4.01-0.75,5.56-2.25l23.56-22.74l57.79,72.99H359.96z"/><path d="M402,81.489c-4.65,0-9.23,0.8-13.54,2.35c-8.09-11.96-21.66-19.35-36.46-19.35c-24.26,0-44,19.74-44,44    c0,6.87,1.55,13.45,4.59,19.57c1.35,2.71,4.13,4.43,7.16,4.43h114.11c4.14,0,7.6-3.16,7.97-7.28c0.12-1.26,0.17-2.51,0.17-3.72    C442,99.429,424.06,81.489,402,81.489z M325.16,116.489c-0.77-2.57-1.16-5.25-1.16-8c0-15.44,12.56-28,28-28    c11.22,0,21.32,6.66,25.75,16.98c0.92,2.14,2.73,3.78,4.96,4.48c2.23,0.69,4.65,0.38,6.63-0.85c3.78-2.36,8.16-3.61,12.66-3.61    c11.52,0,21.17,8.16,23.48,19H325.16z"/><path d="M135,66.489c-4.65,0-9.23,0.8-13.54,2.35c-8.09-11.96-21.66-19.35-36.46-19.35c-24.26,0-44,19.74-44,44    c0,6.87,1.55,13.45,4.59,19.57c1.35,2.71,4.13,4.43,7.16,4.43h114.11c4.14,0,7.59-3.15,7.97-7.27c0.11-1.26,0.17-2.52,0.17-3.73    C175,84.429,157.06,66.489,135,66.489z M58.16,101.489c-0.77-2.57-1.16-5.25-1.16-8c0-15.44,12.56-28,28-28    c11.22,0,21.32,6.66,25.75,16.98c0.92,2.14,2.74,3.78,4.96,4.48c2.23,0.69,4.65,0.38,6.63-0.85c3.78-2.36,8.16-3.61,12.66-3.61    c11.52,0,21.17,8.16,23.48,19H58.16z"/></g></g><g transform="matrix(0.12652942538261414 0 0 0.12652942538261414 249 204.00000037069185)" id="L1_3"><path d="M392.914,243.615 363.007,272.492 326.622,236.108 309.628,257.314 355.341,336.489    466.448,336.489z" fill="#f8a805"/><path d="M286.184,216.71 233.699,193.488 211.694,229.487 211.799,229.472 211.694,229.491    181.279,191.975 51.534,416.709 401.657,416.709z" fill="#a18671"/><path d="M129.619,232.694 86.966,277.44 59.158,241.082 4.084,336.489 97.839,336.489    143.734,256.998z" fill="#f8a805"/><path d="M96.697,176.069 59.165,241.081 87.008,277.494 129.611,232.695z" fill="#efefef"/><path d="M226.589,113.489 181.281,191.975 211.701,229.485 233.694,193.486 286.191,216.705z" fill="#efefef"/><path d="M356.695,198.581 326.626,236.109 363,272.484 392.869,243.656z" fill="#efefef"/><path d="M433.304,114.822c-3.127-14.679-16.293-25.333-31.304-25.333c-6.001,0-11.844,1.669-16.898,4.824   C379.41,81.055,366.416,72.489,352,72.489c-19.851,0-36,16.149-36,36c0,8.777,3.204,16,3.204,16h116.159L433.304,114.822z" fill="#3e81c8"/><path d="M166.304,99.822C163.177,85.143,150.011,74.489,135,74.489c-6.001,0-11.844,1.669-16.898,4.824   C112.41,66.055,99.416,57.489,85,57.489c-19.851,0-36,16.149-36,36c0,8.444,3.204,16,3.204,16h116.159L166.304,99.822z" fill="#3e81c8"/><g><path d="M472.69,331.479l-2.38-2.99l-107.37-134.92c-1.52-1.89-3.82-2.99-6.24-2.99c0,0,0,0-0.01,0c-2.42,0-4.72,1.11-6.24,3    l-39.74,49.6l-77.19-133.69c-1.43-2.48-4.07-4-6.93-4c-2.85,0-5.5,1.52-6.92,4l-75.96,131.55l-40.1-68.99    c-1.43-2.46-4.06-3.98-6.91-3.98c-0.01,0-0.01,0-0.01,0c-2.86,0.01-5.49,1.53-6.92,4l-88.7,153.63c-0.51,0.89-0.83,1.83-0.97,2.79    H0v16h83.99l-35.22,61c-0.59,1.02-0.91,2.12-1.01,3.22h-0.01v0.06c-0.04,0.52-0.06,1.04,0,1.55v14.39h357.68v-14.29    c0.07-0.56,0.05-1.12,0-1.69v-0.02c-0.11-1.1-0.42-2.2-1.01-3.22l-35.22-61H474C474,344.489,474.95,333.749,472.69,331.479z     M356.7,211.369l25.36,31.6l-18.96,18.3l-25.75-25.75L356.7,211.369z M226.59,129.489l40.41,69.98l-30.07-13.3    c-3.66-1.62-7.97-0.27-10.06,3.15l-16.09,26.33l-19.82-24.44L226.59,129.489z M96.72,192.029l22.96,39.5l-32.01,33.66    l-18.91-24.73L96.72,192.029z M17.94,328.489l42.15-73.02l20.56,26.88c1.42,1.86,3.59,3,5.92,3.13c0.15,0.01,0.29,0.01,0.43,0.01    c2.19,0,4.29-0.89,5.8-2.49l35.26-37.06l6.43,11.07l-41.27,71.48L17.94,328.489L17.94,328.489z M127.12,408.709H65.39l37.08-64.22    l9.23-16l70.69-122.44l23.09,28.48c1.53,1.88,3.82,2.96,6.22,2.96c0.17,0,0.35-0.01,0.53-0.02c2.59-0.17,4.94-1.59,6.29-3.81    l18.35-30.02l9.83,4.35v26.25c0,8.96-7.29,16.25-16.26,16.25h-24.49c-17.78,0-32.25,14.47-32.25,32.25v0.5    c0,17.78,14.47,32.25,32.25,32.25h66.49c7.86,0,14.42,5.59,15.93,13c0.22,1.05,0.33,2.14,0.33,3.25v14.5    c0,8.96-7.29,16.25-16.26,16.25H157.95c-17.78,0-32.25,14.47-32.25,32.25v4.5C125.7,402.529,126.2,405.709,127.12,408.709z     M387.8,408.709H144.75c-1.92-2.67-3.05-5.94-3.05-9.47v-4.5c0-8.96,7.29-16.25,16.25-16.25h114.49    c17.79,0,32.26-14.47,32.26-32.25v-14.5c0-1.1-0.06-2.18-0.17-3.25c-1.63-16.26-15.4-29-32.09-29h-66.49    c-8.96,0-16.25-7.29-16.25-16.25v-0.5c0-8.96,7.29-16.25,16.25-16.25h24.49c17.79,0,32.26-14.47,32.26-32.25v-19.18l17.86,7.91    l60.92,105.52l9.24,16L387.8,408.709z M359.96,328.489l-40.67-70.44l7.99-9.97l30.07,30.07c1.56,1.56,3.6,2.34,5.65,2.34    c2.01,0,4.01-0.75,5.56-2.25l23.56-22.74l57.79,72.99H359.96z"/><path d="M402,81.489c-4.65,0-9.23,0.8-13.54,2.35c-8.09-11.96-21.66-19.35-36.46-19.35c-24.26,0-44,19.74-44,44    c0,6.87,1.55,13.45,4.59,19.57c1.35,2.71,4.13,4.43,7.16,4.43h114.11c4.14,0,7.6-3.16,7.97-7.28c0.12-1.26,0.17-2.51,0.17-3.72    C442,99.429,424.06,81.489,402,81.489z M325.16,116.489c-0.77-2.57-1.16-5.25-1.16-8c0-15.44,12.56-28,28-28    c11.22,0,21.32,6.66,25.75,16.98c0.92,2.14,2.73,3.78,4.96,4.48c2.23,0.69,4.65,0.38,6.63-0.85c3.78-2.36,8.16-3.61,12.66-3.61    c11.52,0,21.17,8.16,23.48,19H325.16z"/><path d="M135,66.489c-4.65,0-9.23,0.8-13.54,2.35c-8.09-11.96-21.66-19.35-36.46-19.35c-24.26,0-44,19.74-44,44    c0,6.87,1.55,13.45,4.59,19.57c1.35,2.71,4.13,4.43,7.16,4.43h114.11c4.14,0,7.59-3.15,7.97-7.27c0.11-1.26,0.17-2.52,0.17-3.73    C175,84.429,157.06,66.489,135,66.489z M58.16,101.489c-0.77-2.57-1.16-5.25-1.16-8c0-15.44,12.56-28,28-28    c11.22,0,21.32,6.66,25.75,16.98c0.92,2.14,2.74,3.78,4.96,4.48c2.23,0.69,4.65,0.38,6.63-0.85c3.78-2.36,8.16-3.61,12.66-3.61    c11.52,0,21.17,8.16,23.48,19H58.16z"/></g></g><g transform="matrix(0.12866950035095215 0 0 0.12866950035095215 108 125.99999679582788)" id="L1_4"><path d="M389.151,389.349l-32.441-32.111c-4.419-4.419-10.228-6.953-15.937-6.953l-237.683,0.003   l-56.53-56.53c-5.621-5.621-13.241-9.113-19.887-9.113c-4.653,0-8.781,1.667-11.937,4.823c-4.452,4.452-6.67,8.957-6.78,13.771   c-0.111,4.887,2.042,9.575,6.4,13.933l63.12,63.12c4.251,4.252,9.904,6.594,15.917,6.594l237.673-0.003l25.91,25.91   c4.251,4.252,9.904,6.594,15.917,6.594c5.683,0,9.453-0.319,13.877-4.743c3.893-3.894,7.878-8.641,7.92-14.335   C394.73,394.928,391.39,391.588,389.151,389.349z" fill="#efefef"/><path d="M456.855,178.188c-4.835-37.474-21.846-73.036-47.901-100.134l-22.889-23.806l9.458,31.642   c0.333,1.114,0.662,2.235,0.966,3.372c10.458,39.681-1.122,92.089-34.419,155.77l-2.953,5.646l4.843,4.141   c5.938,5.077,7.981,10.969,9.958,16.667c2.463,7.099,5.011,14.439,15.035,20.227c4.954,2.86,9.648,4.192,14.773,4.192   c3.563,0,6.815-0.627,10.237-1.288c3.365-0.639,11.394-1.255,14.204-1.439l4.268-0.279l2.139-3.704   C454.145,255.296,461.85,216.91,456.855,178.188z" fill="#3e81c8"/><path d="M396.884,90.835c-4.604-18.682-13.061-30.211-19.343-36.594l-7.374-7.491l-91.045,157.696   l4.957,4.328c5.751,5.021,7.776,10.841,9.733,16.462c2.463,7.099,5.011,14.439,15.034,20.227c4.952,2.859,9.644,4.19,14.767,4.19   c3.547,0,6.808-0.625,10.262-1.289c3.25-0.625,6.61-1.271,10.231-1.271c2.983,0,5.796,0.45,8.602,1.375l6.456,2.13l3.144-6.028   C402.97,166.588,403.554,117.927,396.884,90.835z" fill="#f8a805"/><path d="M359.99,44.11c-5.31-1.376-11.032-2.074-17.009-2.074c-7.861,0-16.052,1.22-24.342,3.625   c-26.789,7.758-68.634,32.586-115.859,106.808l-3.65,5.736l5.073,4.527c5.587,4.987,7.582,10.721,9.506,16.253   c2.455,7.097,4.995,14.436,15.028,20.229c4.952,2.859,9.644,4.19,14.767,4.19c3.547,0,6.808-0.625,10.262-1.288   c3.253-0.625,6.617-1.272,10.235-1.272c3.083,0,5.992,0.482,8.894,1.475l6.226,2.128l91.047-157.699L359.99,44.11z" fill="#3e81c8"/><path d="M323.673,28.817c-13.79-3.406-28.001-5.134-42.238-5.134c-30.545,0-60.75,7.94-87.351,22.961   c-27.41,15.48-50.262,38.147-66.084,65.553l-2.14,3.707l1.896,3.837c1.247,2.523,4.728,9.777,5.847,12.994   c2.455,7.097,4.995,14.436,15.028,20.229c4.954,2.86,9.648,4.192,14.773,4.192c3.563,0,6.816-0.627,10.262-1.292   c3.283-0.627,6.678-1.275,10.261-1.275c3.173,0,6.166,0.515,9.151,1.574l6.013,2.133l3.417-5.388   C241,92.227,280.596,55.995,320.208,45.213c1.146-0.313,2.277-0.582,3.395-0.847l32.126-7.631L323.673,28.817z" fill="#f8a805"/><g><path d="M61.221,222.306c11.387-5.561,23.853-5.936,35.389-1.122c1.413,1.214,3.244,1.933,5.214,1.933h0.774    c1.97,0,3.801-0.719,5.214-1.933c11.536-4.814,24-4.439,35.39,1.122c1.13,0.552,2.326,0.813,3.504,0.813    c2.961-0.001,5.808-1.652,7.194-4.492c1.939-3.97,0.292-8.76-3.679-10.699c-15.448-7.543-32.342-8.123-48.01-1.743    c-15.672-6.38-32.565-5.799-48.01,1.743c-3.971,1.939-5.617,6.729-3.679,10.699C52.462,222.597,57.253,224.244,61.221,222.306z"/><path d="M373.786,40.482c-87.616-50.585-199.399-21.35-251.18,65.137c-0.009-0.005-0.012-0.019-0.03-0.029l-8,13.856    c7.439,4.295,9.127,9.172,11.463,15.925c2.675,7.687,5.998,17.25,18.591,24.52c12.592,7.27,22.536,5.367,30.53,3.84    c7.016-1.353,12.093-2.325,19.523,1.965s9.127,9.172,11.463,15.925c2.675,7.687,5.998,17.25,18.591,24.52    c12.592,7.27,22.536,5.367,30.522,3.835c4.401-0.842,8.027-1.543,11.949-0.896l-76.905,133.204h-83.901l-54.19-54.18    c-7.17-7.18-16.72-11.46-25.54-11.46c-6.82,0-12.9,2.48-17.59,7.17c-11.97,11.96-12.12,27.28-0.38,39.02l38.19,38.18v81.63    c0,4.42,3.58,8,8,8s8-3.58,8-8v-65.63l8.93,8.94c5.76,5.76,13.42,8.93,21.57,8.93h204c-0.32,0.86-0.5,1.79-0.5,2.76v45    c0,4.42,3.58,8,8,8s8-3.58,8-8v-45c0-0.97-0.18-1.9-0.5-2.76h15.36l23.57,23.57c5.76,5.76,13.42,8.93,21.57,8.93    c6.81,0,12.979-0.53,19.53-7.08c16.12-16.12,10.21-28.79,2.39-36.61l-32.47-32.14c-5.89-5.89-13.75-9.27-21.57-9.27H208.778    l72.281-125.195c2.522,3.072,3.733,6.555,5.195,10.782c2.666,7.682,5.99,17.245,18.591,24.52    c12.592,7.27,22.536,5.367,30.522,3.835c7.025-1.348,12.093-2.325,19.523,1.965c7.439,4.295,9.127,9.172,11.472,15.93    c2.666,7.682,5.998,17.25,18.591,24.52c12.592,7.27,22.536,5.367,30.53,3.84c7.017-1.353,12.093-2.325,19.523,1.965l8-13.856    c-0.009-0.005-0.022-0.001-0.031-0.006C491.976,202.492,461.402,91.067,373.786,40.482z M351.052,362.895l32.47,32.14    c3.48,3.48,5.77,5.77-2.41,13.95c-2.11,2.11-3.11,2.4-8.22,2.4c-3.88,0-7.521-1.51-10.26-4.25l-25.91-25.91    c-1.5-1.5-3.53-2.34-5.65-2.34H93.393c-3.88,0-7.521-1.51-10.26-4.25l-63.12-63.12c-5.53-5.53-5.42-10.59,0.38-16.39    c1.67-1.67,3.729-2.48,6.28-2.48c4.53,0,10.12,2.66,14.23,6.77l56.53,56.53c1.5,1.5,3.539,2.34,5.66,2.34h237.68    C344.372,358.285,348.112,359.955,351.052,362.895z M195.754,148.624c-9.392-3.332-17.142-1.849-23.605-0.615    c-7.016,1.353-12.088,2.317-19.518-1.973c-7.431-4.29-9.132-9.164-11.468-15.917c-1.532-4.406-6.234-13.922-6.234-13.922    c38.51-66.701,115.621-97.202,186.826-79.613c-1.204,0.286-2.423,0.576-3.657,0.914    C276.491,48.822,235.346,86.208,195.754,148.624z M275.483,194.748c-9.219-3.152-16.85-1.715-23.227-0.489    c-7.025,1.348-12.088,2.317-19.518-1.973c-7.431-4.29-9.132-9.164-11.468-15.917c-2.105-6.054-4.63-13.261-11.74-19.607    c45.763-71.924,85.67-95.985,111.335-103.418c16.852-4.889,29.605-3.438,37.118-1.491L275.483,194.748z M355.213,240.873    c-9.05-2.985-16.563-1.572-22.85-0.364c-7.025,1.348-12.088,2.317-19.518-1.973c-7.439-4.295-9.132-9.164-11.477-15.922    c-2.132-6.127-4.689-13.458-12.029-19.866l82.5-142.894c5.452,5.538,13.076,15.852,17.277,32.896    C395.503,118.688,394.628,165.283,355.213,240.873z M427.645,285.197c0,0-10.583,0.691-15.174,1.562    c-7.016,1.353-12.088,2.317-19.518-1.973c-7.439-4.295-9.132-9.164-11.477-15.922c-2.154-6.209-4.749-13.654-12.318-20.125    c34.249-65.501,46.057-119.813,35.066-161.516c-0.333-1.243-0.682-2.438-1.037-3.624    C454.022,136.47,466.155,218.496,427.645,285.197z"/></g></g></defs><g fi:class="KUsePattern" opacity="0.25"><pattern id="pattern_L1_0" width="350" height="350" patternUnits="userSpaceOnUse"><use xlink:href="#L1_0" x="-350" y="-350"/><use xlink:href="#L1_0" x="0" y="-350"/><use xlink:href="#L1_0" x="350" y="-350"/><use xlink:href="#L1_0" x="-350" y="0"/><use xlink:href="#L1_0" x="0" y="0"/><use xlink:href="#L1_0" x="350" y="0"/><use xlink:href="#L1_0" x="-350" y="350"/><use xlink:href="#L1_0" x="0" y="350"/><use xlink:href="#L1_0" x="350" y="350"/></pattern><rect x="0" y="0" width="100%" height="100%" fill="url(#pattern_L1_0)"/></g><g fi:class="KUsePattern" opacity="0.25"><pattern id="pattern_L1_1" width="350" height="350" patternUnits="userSpaceOnUse"><use xlink:href="#L1_1" x="-350" y="-350"/><use xlink:href="#L1_1" x="0" y="-350"/><use xlink:href="#L1_1" x="350" y="-350"/><use xlink:href="#L1_1" x="-350" y="0"/><use xlink:href="#L1_1" x="0" y="0"/><use xlink:href="#L1_1" x="350" y="0"/><use xlink:href="#L1_1" x="-350" y="350"/><use xlink:href="#L1_1" x="0" y="350"/><use xlink:href="#L1_1" x="350" y="350"/></pattern><rect x="0" y="0" width="100%" height="100%" fill="url(#pattern_L1_1)"/></g><g fi:class="KUsePattern" opacity="0.25"><pattern id="pattern_L1_2" width="350" height="350" patternUnits="userSpaceOnUse"><use xlink:href="#L1_2" x="-350" y="-350"/><use xlink:href="#L1_2" x="0" y="-350"/><use xlink:href="#L1_2" x="350" y="-350"/><use xlink:href="#L1_2" x="-350" y="0"/><use xlink:href="#L1_2" x="0" y="0"/><use xlink:href="#L1_2" x="350" y="0"/><use xlink:href="#L1_2" x="-350" y="350"/><use xlink:href="#L1_2" x="0" y="350"/><use xlink:href="#L1_2" x="350" y="350"/></pattern><rect x="0" y="0" width="100%" height="100%" fill="url(#pattern_L1_2)"/></g><g fi:class="KUsePattern" opacity="0.25"><pattern id="pattern_L1_3" width="350" height="350" patternUnits="userSpaceOnUse"><use xlink:href="#L1_3" x="-350" y="-350"/><use xlink:href="#L1_3" x="0" y="-350"/><use xlink:href="#L1_3" x="350" y="-350"/><use xlink:href="#L1_3" x="-350" y="0"/><use xlink:href="#L1_3" x="0" y="0"/><use xlink:href="#L1_3" x="350" y="0"/><use xlink:href="#L1_3" x="-350" y="350"/><use xlink:href="#L1_3" x="0" y="350"/><use xlink:href="#L1_3" x="350" y="350"/></pattern><rect x="0" y="0" width="100%" height="100%" fill="url(#pattern_L1_3)"/></g><g fi:class="KUsePattern" opacity="0.25"><pattern id="pattern_L1_4" width="350" height="350" patternUnits="userSpaceOnUse"><use xlink:href="#L1_4" x="-350" y="-350"/><use xlink:href="#L1_4" x="0" y="-350"/><use xlink:href="#L1_4" x="350" y="-350"/><use xlink:href="#L1_4" x="-350" y="0"/><use xlink:href="#L1_4" x="0" y="0"/><use xlink:href="#L1_4" x="350" y="0"/><use xlink:href="#L1_4" x="-350" y="350"/><use xlink:href="#L1_4" x="0" y="350"/><use xlink:href="#L1_4" x="350" y="350"/></pattern><rect x="0" y="0" width="100%" height="100%" fill="url(#pattern_L1_4)"/></g></svg>