<?xml version="1.0" encoding="UTF-8"?>
<svg width="62px" height="62px" viewBox="0 0 62 62" version="1.1" xmlns="http://www.w3.org/2000/svg" xmlns:xlink="http://www.w3.org/1999/xlink">
    <!-- Generator: Sketch 52.2 (67145) - http://www.bohemiancoding.com/sketch -->
    <title>Group</title>
    <desc>Created with Sketch.</desc>
    <g id="Page-1" stroke="none" stroke-width="1" fill="none" fill-rule="evenodd">
        <g id="Desktop-Copy" transform="translate(-410.000000, -561.000000)" fill="#231F20" fill-rule="nonzero">
            <g id="Group" transform="translate(410.000000, 561.000000)">
                <path d="M47.1290247,62 C47.1290247,58.2785584 46.3699742,54.8458517 44.8518732,51.7018797 C43.3337723,48.5579078 43.8446973,42.8371185 46.3846483,34.5395119 C45.528582,28.846504 46.1972166,26.4588793 48.3905521,27.376638 C50.5838876,28.2943967 51.2192493,30.6820213 50.2966372,34.5395119 C50.2160466,36.9241664 50.4494584,38.6504503 50.9968727,39.7183637 C51.544287,40.7862771 52.363402,40.7862771 53.4542177,39.7183637 L59.9860706,26 C60.6515284,29.1113372 61.2099779,31.534438 61.6614191,33.2693022 C62.1128603,35.0041664 62.1128603,36.0912204 61.6614191,36.5304641 C58.5397867,43.8362324 56.4858963,48.2590306 55.4997481,49.7988587 C54.5135998,51.3386868 54.2434039,54.705452 54.6891603,59.8991543 L47.1290247,62 Z M44.5460605,55.5195579 C41.4183129,56.6347005 38.9215706,55.8085951 37.0558336,53.0412416 C35.1900967,50.2738881 35.7970322,46.8050616 38.8766403,42.6347622 C40.9915298,34.506029 41.7529838,29.5867008 41.1610024,27.8767774 C40.2730302,25.3118923 40.5445019,25.855361 40.1816188,24.7636735 C39.8187356,23.6719861 39.0864115,24.8280753 39.6797209,18.5413019 C40.0752605,14.3501197 41.091382,11.3944411 42.7280855,9.67426614 C41.86686,6.18135444 42.3361731,3.44936558 44.136025,1.47829953 C45.9358769,-0.492766511 47.4775688,-0.492766511 48.7611006,1.47829953 L49.3169706,2.54031467 C47.8085988,4.29523104 47.4315059,5.92295205 48.1856917,7.42347768 C48.1856917,7.42347768 48.4988818,2.99964182 51.6143586,3.99375904 C52.0615842,4.30870996 52.4525527,4.76167734 52.787264,5.35266118 C50.9179401,6.93178216 50.255125,8.17136746 50.7988184,9.07141706 C50.7988184,9.67426614 51.6358798,5.46542842 53.9508246,6.44445305 C55.4941211,7.09713614 55.6855465,7.97279081 54.5251008,9.07141706 C52.9706661,10.291923 52.5820574,11.4980958 53.3592748,12.6899354 C53.3592748,12.6899354 53.6387672,8.8723658 56.3235368,9.67426614 C58.1133832,10.2088664 57.9836897,11.6276642 55.9344562,13.9306597 C54.6643279,16.1852451 54.4116426,17.7221258 55.1764003,18.5413019 C55.1764003,18.5413019 54.9532594,15.1713841 57.8235078,13.9306597 C57.8235078,13.9306597 60.4706153,15.6608964 57.8235078,21.4342371 C57.8235078,21.4342371 57.4706734,27.7195867 56.3235368,30.0122357 C55.5587791,31.5406684 54.3800215,34.1221648 52.787264,37.7567249 C52.4059234,35.792221 52.4059234,34.3739926 52.787264,33.5020399 C53.3592748,32.1941109 52.2577292,25.6960413 49.3169706,25.6960413 C46.376212,25.6960413 43.1967379,27.6518124 45.0144298,34.2746094 C45.0144298,34.9316589 44.5411522,36.9934578 43.5945969,40.4600062 C42.4637901,46.2792891 42.3396656,49.8309824 43.2222236,51.1150861 C44.1047815,52.3991897 44.5460605,53.867347 44.5460605,55.5195579 Z" id="Combined-Shape"></path>
                <path d="M11.1290247,62 C11.1290247,58.2785584 10.3699742,54.8458517 8.85187323,51.7018797 C7.33377226,48.5579078 7.84469727,42.8371185 10.3846483,34.5395119 C9.52858195,28.846504 10.1972166,26.4588793 12.3905521,27.376638 C14.5838876,28.2943967 15.2192493,30.6820213 14.2966372,34.5395119 C14.2160466,36.9241664 14.4494584,38.6504503 14.9968727,39.7183637 C15.544287,40.7862771 16.363402,40.7862771 17.4542177,39.7183637 L23.9860706,26 C24.6515284,29.1113372 25.2099779,31.534438 25.6614191,33.2693022 C26.1128603,35.0041664 26.1128603,36.0912204 25.6614191,36.5304641 C22.5397867,43.8362324 20.4858963,48.2590306 19.4997481,49.7988587 C18.5135998,51.3386868 18.2434039,54.705452 18.6891603,59.8991543 L11.1290247,62 Z M8.5460605,55.5195579 C5.41831286,56.6347005 2.92157057,55.8085951 1.05583362,53.0412416 C-0.809903335,50.2738881 -0.202967758,46.8050616 2.87664035,42.6347622 C4.9915298,34.506029 5.75298381,29.5867008 5.16100239,27.8767774 C4.27303025,25.3118923 4.54450195,25.855361 4.18161878,24.7636735 C3.81873561,23.6719861 3.08641153,24.8280753 3.67972089,18.5413019 C4.07526046,14.3501197 5.091382,11.3944411 6.7280855,9.67426614 C5.86685997,6.18135444 6.33617314,3.44936558 8.13602502,1.47829953 C9.93587689,-0.492766511 11.4775688,-0.492766511 12.7611006,1.47829953 L13.3169706,2.54031467 C11.8085988,4.29523104 11.4315059,5.92295205 12.1856917,7.42347768 C12.1856917,7.42347768 12.4988818,2.99964182 15.6143586,3.99375904 C16.0615842,4.30870996 16.4525527,4.76167734 16.787264,5.35266118 C14.9179401,6.93178216 14.255125,8.17136746 14.7988184,9.07141706 C14.7988184,9.67426614 15.6358798,5.46542842 17.9508246,6.44445305 C19.4941211,7.09713614 19.6855465,7.97279081 18.5251008,9.07141706 C16.9706661,10.291923 16.5820574,11.4980958 17.3592748,12.6899354 C17.3592748,12.6899354 17.6387672,8.8723658 20.3235368,9.67426614 C22.1133832,10.2088664 21.9836897,11.6276642 19.9344562,13.9306597 C18.6643279,16.1852451 18.4116426,17.7221258 19.1764003,18.5413019 C19.1764003,18.5413019 18.9532594,15.1713841 21.8235078,13.9306597 C21.8235078,13.9306597 24.4706153,15.6608964 21.8235078,21.4342371 C21.8235078,21.4342371 21.4706734,27.7195867 20.3235368,30.0122357 C19.5587791,31.5406684 18.3800215,34.1221648 16.787264,37.7567249 C16.4059234,35.792221 16.4059234,34.3739926 16.787264,33.5020399 C17.3592748,32.1941109 16.2577292,25.6960413 13.3169706,25.6960413 C10.376212,25.6960413 7.19673794,27.6518124 9.01442976,34.2746094 C9.01442976,34.9316589 8.54115215,36.9934578 7.59459695,40.4600062 C6.46379007,46.2792891 6.33966561,49.8309824 7.22222357,51.1150861 C8.10478152,52.3991897 8.5460605,53.867347 8.5460605,55.5195579 Z" id="Combined-Shape-Copy" transform="translate(13.000000, 31.000000) scale(-1, 1) translate(-13.000000, -31.000000) "></path>
            </g>
        </g>
    </g>
</svg>